<?xml version="1.0" encoding="iso-8859-1"?>
<!-- Generator: Adobe Illustrator 19.0.0, SVG Export Plug-In . SVG Version: 6.00 Build 0)  -->
<svg version="1.1" id="Layer_1" xmlns="http://www.w3.org/2000/svg" xmlns:xlink="http://www.w3.org/1999/xlink" x="0px" y="0px"
	 viewBox="0 0 512 512" style="enable-background:new 0 0 512 512;" xml:space="preserve">
<path style="fill:#BDBDBD;" d="M68.864,119.467l24.491,375.467h325.291l24.491-375.467H68.864z M170.667,418.133
	c0,4.693-3.84,8.533-8.533,8.533s-8.533-3.84-8.533-8.533V196.267c0-4.693,3.84-8.533,8.533-8.533c4.693,0,8.533,3.84,8.533,8.533
	V418.133z M264.533,418.133c0,4.693-3.84,8.533-8.533,8.533c-4.693,0-8.533-3.84-8.533-8.533V196.267
	c0-4.693,3.84-8.533,8.533-8.533c4.693,0,8.533,3.84,8.533,8.533V418.133z M358.4,418.133c0,4.693-3.84,8.533-8.533,8.533
	c-4.693,0-8.533-3.84-8.533-8.533V196.267c0-4.693,3.84-8.533,8.533-8.533c4.693,0,8.533,3.84,8.533,8.533V418.133z"/>
<g>
	<path style="fill:#90A4AE;" d="M273.067,204.8v221.867c0,4.693-3.84,8.533-8.533,8.533S256,431.36,256,426.667V204.8
		c0-4.693,3.84-8.533,8.533-8.533S273.067,200.107,273.067,204.8z"/>
	<path style="fill:#90A4AE;" d="M179.2,204.8v221.867c0,4.693-3.84,8.533-8.533,8.533s-8.533-3.84-8.533-8.533V204.8
		c0-4.693,3.84-8.533,8.533-8.533S179.2,200.107,179.2,204.8z"/>
	<path style="fill:#90A4AE;" d="M366.933,204.8v221.867c0,4.693-3.84,8.533-8.533,8.533s-8.533-3.84-8.533-8.533V204.8
		c0-4.693,3.84-8.533,8.533-8.533S366.933,200.107,366.933,204.8z"/>
</g>
<path d="M477.867,42.667H315.733V8.533c0-4.693-3.84-8.533-8.533-8.533H204.8c-4.693,0-8.533,3.84-8.533,8.533v34.133H34.133
	c-4.693,0-8.533,3.84-8.533,8.533v59.733c0,4.693,3.84,8.533,8.533,8.533h17.579L76.8,504.064c0.341,4.437,4.011,7.936,8.533,7.936
	h341.333c4.523,0,8.192-3.499,8.533-7.936l25.088-384.597h17.579c4.693,0,8.533-3.84,8.533-8.533V51.2
	C486.4,46.507,482.56,42.667,477.867,42.667z M213.333,17.067h85.333v25.6h-85.333V17.067z M418.645,494.933H93.355L68.864,119.467
	h374.272L418.645,494.933z M469.333,102.4H42.667V59.733h426.667V102.4z"/>
<g>
	<rect x="213.333" y="17.067" style="fill:#BDBDBD;" width="85.333" height="25.6"/>
	<rect x="42.667" y="59.733" style="fill:#BDBDBD;" width="426.667" height="42.667"/>
</g>
<path d="M264.533,196.267v221.867c0,4.693-3.84,8.533-8.533,8.533c-4.693,0-8.533-3.84-8.533-8.533V196.267
	c0-4.693,3.84-8.533,8.533-8.533C260.693,187.733,264.533,191.573,264.533,196.267z"/>
<path d="M170.667,196.267v221.867c0,4.693-3.84,8.533-8.533,8.533s-8.533-3.84-8.533-8.533V196.267c0-4.693,3.84-8.533,8.533-8.533
	C166.827,187.733,170.667,191.573,170.667,196.267z"/>
<path d="M358.4,196.267v221.867c0,4.693-3.84,8.533-8.533,8.533c-4.693,0-8.533-3.84-8.533-8.533V196.267
	c0-4.693,3.84-8.533,8.533-8.533C354.56,187.733,358.4,191.573,358.4,196.267z"/>
<polygon style="fill:#90A4AE;" points="443.136,119.467 418.133,119.467 68.864,119.467 69.973,136.533 417.024,136.533 
	393.643,494.933 418.645,494.933 442.027,136.533 442.027,136.533 "/>
<g>
</g>
<g>
</g>
<g>
</g>
<g>
</g>
<g>
</g>
<g>
</g>
<g>
</g>
<g>
</g>
<g>
</g>
<g>
</g>
<g>
</g>
<g>
</g>
<g>
</g>
<g>
</g>
<g>
</g>
</svg>
