<svg data-v-fde0c5aa="" xmlns="http://www.w3.org/2000/svg" viewBox="0 0 300 300" class="iconLeft"><!----><defs data-v-fde0c5aa=""><!----></defs><rect data-v-fde0c5aa="" fill="transparent" x="0" y="0" width="300px" height="300px" class="logo-background-square"></rect><defs data-v-fde0c5aa=""><!----></defs><g data-v-fde0c5aa="" id="745ea471-4e9a-48cc-aa1f-d290ada0b735" fill="#2e3034" transform="matrix(4.043297276914022,0,0,4.043297276914022,79.84161016163148,119.43873828821917)"><path d="M2.09 7.54L2.09 7.54L2.09 7.54Q2.18 7.39 2.27 7.39L2.27 7.39L2.27 7.39Q2.35 7.40 2.41 7.54L2.41 7.54L2.41 7.54Q2.49 7.70 2.57 7.85L2.57 7.85L2.57 7.85Q2.65 8.00 2.72 8.17L2.72 8.17L2.81 8.38L2.81 8.38Q2.89 8.57 3.03 8.54L3.03 8.54L3.03 8.54Q3.04 8.54 3.08 8.53L3.08 8.53L3.08 8.53Q3.19 8.50 3.21 8.31L3.21 8.31L3.21 8.31Q3.23 8.26 3.23 8.20L3.23 8.20L3.23 8.20Q3.24 8.14 3.25 8.08L3.25 8.08L3.25 8.08Q3.27 7.97 3.29 7.88L3.29 7.88L3.29 7.88Q3.31 7.78 3.34 7.70L3.34 7.70L3.34 7.70Q3.36 7.64 3.40 7.55L3.40 7.55L3.40 7.55Q3.44 7.46 3.49 7.35L3.49 7.35L3.49 7.35Q3.64 7.02 3.75 6.68L3.75 6.68L3.75 6.68Q3.86 6.34 3.96 5.99L3.96 5.99L4.03 5.73L4.03 5.73Q4.08 5.54 4.14 5.48L4.14 5.48L4.14 5.48Q4.25 5.37 4.42 5.46L4.42 5.46L4.42 5.46Q4.55 5.54 4.48 5.74L4.48 5.74L4.48 5.74Q4.38 6.06 4.24 6.34L4.24 6.34L4.24 6.34Q4.20 6.42 4.18 6.51L4.18 6.51L4.18 6.51Q4.16 6.57 4.15 6.63L4.15 6.63L4.15 6.63Q4.13 6.69 4.11 6.75L4.11 6.75L4.11 6.75Q4.07 6.87 4.05 6.97L4.05 6.97L4.05 6.97Q4.03 7.06 4.01 7.14L4.01 7.14L4.01 7.14Q3.98 7.27 3.96 7.37L3.96 7.37L3.96 7.37Q3.94 7.46 3.92 7.51L3.92 7.51L3.92 7.51Q3.83 7.84 3.73 8.15L3.73 8.15L3.73 8.15Q3.62 8.46 3.50 8.76L3.50 8.76L3.50 8.76Q3.45 8.87 3.43 9.00L3.43 9.00L3.43 9.00Q3.40 9.12 3.38 9.23L3.38 9.23L3.38 9.23Q3.32 9.53 3.21 9.63L3.21 9.63L3.21 9.63Q3.13 9.68 3.04 9.68L3.04 9.68L3.04 9.68Q2.96 9.68 2.90 9.64L2.90 9.64L2.90 9.64Q2.83 9.60 2.78 9.53L2.78 9.53L2.78 9.53Q2.73 9.46 2.70 9.39L2.70 9.39L2.70 9.39Q2.67 9.31 2.65 9.24L2.65 9.24L2.65 9.24Q2.61 9.13 2.58 9.02L2.58 9.02L2.58 9.02Q2.56 8.91 2.52 8.79L2.52 8.79L2.52 8.79Q2.42 8.52 2.24 8.52L2.24 8.52L2.24 8.52Q2.06 8.52 1.98 8.70L1.98 8.70L1.98 8.70Q1.93 8.78 1.89 8.86L1.89 8.86L1.89 8.86Q1.86 8.93 1.84 8.99L1.84 8.99L1.84 8.99Q1.80 9.07 1.78 9.16L1.78 9.16L1.78 9.16Q1.76 9.24 1.74 9.32L1.74 9.32L1.74 9.33L1.74 9.33Q1.67 9.57 1.61 9.63L1.61 9.63L1.61 9.63Q1.56 9.67 1.41 9.67L1.41 9.67L1.41 9.67Q1.24 9.67 1.18 9.37L1.18 9.37L1.18 9.37Q1.16 9.28 1.14 9.22L1.14 9.22L1.14 9.22Q1.11 9.15 1.10 9.10L1.10 9.10L1.10 9.10Q0.94 8.75 0.83 8.39L0.83 8.39L0.83 8.39Q0.71 8.03 0.61 7.66L0.61 7.66L0.61 7.66Q0.54 7.44 0.48 7.21L0.48 7.21L0.48 7.21Q0.42 6.99 0.33 6.76L0.33 6.76L0.33 6.76Q0.28 6.61 0.23 6.47L0.23 6.47L0.23 6.47Q0.17 6.32 0.13 6.18L0.13 6.18L0.13 6.18Q0.10 6.10 0.07 6.01L0.07 6.01L0.07 6.01Q0.04 5.91 0.02 5.82L0.02 5.82L0.02 5.82Q-0.01 5.71-0.01 5.62L-0.01 5.62L-0.01 5.62Q0.01 5.43 0.18 5.42L0.18 5.42L0.18 5.42Q0.35 5.41 0.40 5.61L0.40 5.61L0.40 5.61Q0.45 5.78 0.49 5.94L0.49 5.94L0.49 5.94Q0.53 6.10 0.60 6.27L0.60 6.27L0.60 6.27Q0.69 6.50 0.79 6.72L0.79 6.72L0.79 6.72Q0.89 6.93 0.95 7.17L0.95 7.17L0.95 7.17Q0.98 7.28 1.02 7.38L1.02 7.38L1.02 7.38Q1.05 7.48 1.09 7.58L1.09 7.58L1.09 7.58Q1.16 7.75 1.18 7.88L1.18 7.88L1.18 7.88Q1.20 7.98 1.22 8.09L1.22 8.09L1.22 8.09Q1.24 8.20 1.26 8.29L1.26 8.29L1.26 8.29Q1.33 8.54 1.48 8.55L1.48 8.55L1.48 8.55Q1.63 8.58 1.76 8.32L1.76 8.32L1.76 8.32Q1.81 8.22 1.86 8.13L1.86 8.13L1.86 8.13Q1.91 8.03 1.97 7.93L1.97 7.93L1.97 7.93Q2.02 7.84 2.07 7.63L2.07 7.63L2.07 7.63Q2.07 7.61 2.08 7.58L2.08 7.58L2.08 7.58Q2.08 7.56 2.09 7.54ZM7.65 9.69L7.65 9.69L7.65 9.69Q7.51 9.65 7.37 9.58L7.37 9.58L7.37 9.58Q7.23 9.52 7.10 9.43L7.10 9.43L7.10 9.43Q6.97 9.34 6.85 9.24L6.85 9.24L6.85 9.24Q6.73 9.13 6.65 9.01L6.65 9.01L6.65 9.01Q6.54 8.84 6.49 8.66L6.49 8.66L6.49 8.66Q6.45 8.48 6.36 8.29L6.36 8.29L6.36 8.29Q6.29 8.13 6.28 7.96L6.28 7.96L6.28 7.96Q6.28 7.88 6.27 7.79L6.27 7.79L6.27 7.79Q6.25 7.70 6.25 7.62L6.25 7.62L6.25 7.62Q6.25 7.54 6.24 7.48L6.24 7.48L6.24 7.48Q6.24 7.42 6.24 7.38L6.24 7.38L6.24 7.38Q6.24 7.25 6.26 7.11L6.26 7.11L6.26 7.11Q6.28 6.97 6.31 6.82L6.31 6.82L6.31 6.82Q6.32 6.77 6.35 6.69L6.35 6.69L6.35 6.69Q6.42 6.49 6.52 6.31L6.52 6.31L6.52 6.31Q6.63 6.13 6.77 5.97L6.77 5.97L6.77 5.97Q7.03 5.67 7.51 5.43L7.51 5.43L7.51 5.43Q7.73 5.34 7.97 5.35L7.97 5.35L7.97 5.35Q8.12 5.36 8.27 5.39L8.27 5.39L8.27 5.39Q8.39 5.41 8.49 5.42L8.49 5.42L8.49 5.42Q8.58 5.43 8.65 5.44L8.65 5.44L8.65 5.44Q9.17 5.50 9.58 5.91L9.58 5.91L9.58 5.91Q9.67 6.00 9.74 6.10L9.74 6.10L9.74 6.10Q9.82 6.21 9.90 6.33L9.90 6.33L9.93 6.38L9.93 6.38Q9.94 6.41 9.95 6.42L9.95 6.42L9.95 6.42Q9.95 6.43 9.96 6.45L9.96 6.45L9.96 6.45Q10.08 6.72 10.17 7.13L10.17 7.13L10.17 7.13Q10.26 7.51 10.20 7.83L10.20 7.83L10.20 7.83Q10.16 8.02 10.10 8.19L10.10 8.19L10.10 8.19Q10.04 8.36 9.99 8.53L9.99 8.53L9.99 8.53Q9.72 9.45 8.78 9.69L8.78 9.69L8.73 9.70L8.73 9.70Q8.67 9.71 8.59 9.73L8.59 9.73L8.59 9.73Q8.51 9.74 8.40 9.75L8.40 9.75L8.40 9.75Q8.22 9.78 8.04 9.76L8.04 9.76L8.04 9.76Q7.85 9.75 7.65 9.69ZM8.35 5.78L8.34 5.78L8.34 5.78Q7.97 5.78 7.67 5.87L7.67 5.87L7.67 5.87Q7.38 5.95 7.14 6.19L7.14 6.19L7.14 6.19Q6.81 6.52 6.72 6.92L6.72 6.92L6.72 6.92Q6.63 7.32 6.73 7.81L6.73 7.81L6.79 8.15L6.79 8.15Q6.80 8.24 6.82 8.30L6.82 8.30L6.82 8.30Q6.83 8.36 6.84 8.37L6.84 8.37L6.84 8.37Q6.88 8.52 7 8.66L7 8.66L7 8.66Q7.12 8.80 7.23 8.90L7.23 8.90L7.23 8.90Q7.28 8.96 7.33 9.02L7.33 9.02L7.33 9.02Q7.39 9.08 7.45 9.13L7.45 9.13L7.45 9.13Q7.55 9.21 7.79 9.29L7.79 9.29L7.80 9.29L7.80 9.29Q7.93 9.32 8.09 9.31L8.09 9.31L8.09 9.31Q8.25 9.30 8.45 9.26L8.45 9.26L8.45 9.26Q8.54 9.23 8.64 9.22L8.64 9.22L8.64 9.22Q8.74 9.21 8.85 9.18L8.85 9.18L8.85 9.18Q9.10 9.12 9.27 8.91L9.27 8.91L9.28 8.91L9.28 8.90L9.28 8.90Q9.39 8.77 9.46 8.57L9.46 8.57L9.46 8.57Q9.53 8.37 9.56 8.32L9.56 8.32L9.56 8.32Q9.91 7.65 9.67 6.87L9.67 6.87L9.66 6.86L9.66 6.86Q9.63 6.79 9.60 6.72L9.60 6.72L9.60 6.72Q9.58 6.65 9.53 6.58L9.53 6.58L9.53 6.58Q9.26 6.18 8.89 6.00L8.89 6.00L8.89 6.00Q8.88 6.00 8.83 5.97L8.83 5.97L8.83 5.97Q8.78 5.94 8.70 5.89L8.70 5.89L8.70 5.89Q8.57 5.81 8.35 5.78L8.35 5.78ZM14.74 5.67L14.74 5.67L14.74 5.67Q14.88 5.82 14.97 5.99L14.97 5.99L14.97 5.99Q15.05 6.16 15.14 6.34L15.14 6.34L15.14 6.34Q15.24 6.54 15.20 6.74L15.20 6.74L15.20 6.74Q15.16 6.94 14.98 7.13L14.98 7.13L14.98 7.13Q14.83 7.28 14.50 7.37L14.50 7.37L14.50 7.37Q14.38 7.40 14.24 7.44L14.24 7.44L14.24 7.44Q14.10 7.48 14.04 7.60L14.04 7.60L14.04 7.60Q14 7.72 14.06 7.84L14.06 7.84L14.06 7.84Q14.13 7.97 14.17 8.05L14.17 8.05L14.17 8.05Q14.21 8.13 14.24 8.18L14.24 8.18L14.24 8.18Q14.27 8.24 14.33 8.33L14.33 8.33L14.33 8.33Q14.38 8.42 14.46 8.52L14.46 8.52L14.46 8.52Q14.62 8.74 14.79 8.93L14.79 8.93L14.79 8.93Q14.96 9.13 15.14 9.30L15.14 9.30L15.18 9.34L15.18 9.34Q15.33 9.49 15.18 9.63L15.18 9.63L15.18 9.63Q15.03 9.79 14.88 9.64L14.88 9.64L14.88 9.64Q14.77 9.52 14.68 9.43L14.68 9.43L14.68 9.43Q14.59 9.34 14.51 9.26L14.51 9.26L14.51 9.26Q14.35 9.05 14.21 8.83L14.21 8.83L14.21 8.83Q14.10 8.67 14.00 8.53L14.00 8.53L14.00 8.53Q13.89 8.39 13.79 8.23L13.79 8.23L13.79 8.23Q13.52 7.74 13.12 7.58L13.12 7.58L13.12 7.58Q12.69 7.42 12.49 7.70L12.49 7.70L12.49 7.70Q12.43 7.80 12.43 7.92L12.43 7.92L12.43 9.40L12.43 9.49L12.43 9.49Q12.43 9.69 12.22 9.70L12.22 9.70L12.22 9.70Q12.00 9.69 12.00 9.44L12.00 9.44L12.00 9.44Q12.00 9.28 12.01 9.12L12.01 9.12L12.01 9.12Q12.02 8.95 12.03 8.76L12.03 8.76L12.03 8.76Q12.04 8.63 12.03 8.49L12.03 8.49L12.03 8.49Q12.02 8.35 12.02 8.22L12.02 8.22L12.02 8.22Q12.02 8.09 12.02 7.96L12.02 7.96L12.02 7.96Q12.03 7.83 12.03 7.70L12.03 7.70L12.03 7.70Q12.04 7.40 12.01 7.07L12.01 7.07L12.01 7.07Q12.01 6.84 12.02 6.61L12.02 6.61L12.02 6.61Q12.03 6.38 12.02 6.14L12.02 6.14L12.02 6.14Q12.02 6.02 12.02 5.86L12.02 5.86L12.02 5.86Q12.02 5.71 12.06 5.58L12.06 5.58L12.06 5.58Q12.18 5.42 12.64 5.42L12.64 5.42L12.85 5.42L12.85 5.42Q13.10 5.42 13.35 5.44L13.35 5.44L13.35 5.44Q13.60 5.46 13.84 5.45L13.84 5.45L13.84 5.45Q14.41 5.42 14.74 5.67ZM12.82 7.15L12.82 7.15L12.82 7.15Q13.08 7.16 13.28 7.16L13.28 7.16L13.28 7.16Q13.47 7.16 13.61 7.14L13.61 7.14L13.61 7.14Q13.74 7.13 13.90 7.11L13.90 7.11L13.90 7.11Q14.06 7.09 14.25 7.05L14.25 7.05L14.25 7.05Q14.64 6.97 14.76 6.69L14.76 6.69L14.76 6.69Q14.81 6.59 14.79 6.47L14.79 6.47L14.79 6.47Q14.78 6.34 14.71 6.24L14.71 6.24L14.71 6.24Q14.65 6.14 14.55 6.07L14.55 6.07L14.55 6.07Q14.45 6.00 14.33 5.94L14.33 5.94L14.33 5.94Q14.22 5.89 14.11 5.87L14.11 5.87L14.11 5.87Q13.82 5.82 13.54 5.83L13.54 5.83L13.54 5.83Q13.25 5.84 12.97 5.82L12.97 5.82L12.97 5.82Q12.91 5.82 12.86 5.82L12.86 5.82L12.86 5.82Q12.81 5.82 12.76 5.82L12.76 5.82L12.76 5.82Q12.61 5.81 12.54 5.89L12.54 5.89L12.54 5.89Q12.48 5.96 12.49 6.08L12.49 6.08L12.49 6.08Q12.50 6.12 12.50 6.23L12.50 6.23L12.50 6.23Q12.49 6.33 12.47 6.43L12.47 6.43L12.47 6.43Q12.46 6.52 12.45 6.62L12.45 6.62L12.45 6.62Q12.41 6.88 12.51 7.01L12.51 7.01L12.51 7.01Q12.60 7.14 12.82 7.15ZM17.01 5.50L17.01 5.50L17.01 5.50Q17.36 5.21 17.40 5.67L17.40 5.67L17.40 5.67Q17.42 5.76 17.42 5.87L17.42 5.87L17.42 5.87Q17.42 5.97 17.41 6.08L17.41 6.08L17.41 6.08Q17.40 6.21 17.40 6.32L17.40 6.32L17.40 6.32Q17.40 6.44 17.40 6.56L17.40 6.56L17.40 6.56Q17.41 6.90 17.58 6.96L17.58 6.96L17.58 6.96Q17.73 7.02 17.91 6.82L17.91 6.82L17.91 6.82Q18.03 6.69 18.17 6.54L18.17 6.54L18.17 6.54Q18.31 6.39 18.47 6.25L18.47 6.25L18.47 6.25Q18.61 6.14 18.74 6.02L18.74 6.02L18.74 6.02Q18.87 5.89 19.00 5.77L19.00 5.77L19.00 5.77Q19.02 5.74 19.08 5.70L19.08 5.70L19.08 5.70Q19.14 5.65 19.23 5.58L19.23 5.58L19.23 5.58Q19.39 5.46 19.48 5.43L19.48 5.43L19.48 5.43Q19.63 5.41 19.70 5.51L19.70 5.51L19.70 5.51Q19.76 5.63 19.65 5.74L19.65 5.74L19.65 5.74Q19.56 5.87 19.48 5.96L19.48 5.96L19.48 5.96Q19.41 6.04 19.36 6.09L19.36 6.09L19.36 6.09Q19.26 6.19 19.01 6.38L19.01 6.38L19.01 6.38Q18.90 6.46 18.79 6.56L18.79 6.56L18.79 6.56Q18.67 6.65 18.57 6.75L18.57 6.75L18.57 6.75Q18.40 6.94 18.38 7.10L18.38 7.10L18.38 7.10Q18.38 7.18 18.40 7.28L18.40 7.28L18.40 7.28Q18.42 7.38 18.49 7.50L18.49 7.50L18.49 7.50Q18.55 7.62 18.62 7.74L18.62 7.74L18.62 7.74Q18.69 7.86 18.75 7.98L18.75 7.98L18.75 7.98Q18.79 8.05 18.81 8.11L18.81 8.11L18.81 8.11Q18.84 8.16 18.85 8.20L18.85 8.20L18.85 8.20L18.85 8.20Q19.01 8.50 19.24 8.78L19.24 8.78L19.24 8.78Q19.48 9.06 19.76 9.34L19.76 9.34L19.76 9.34Q19.91 9.48 19.76 9.63L19.76 9.63L19.76 9.63Q19.61 9.79 19.46 9.64L19.46 9.64L19.46 9.64Q18.94 9.14 18.68 8.74L18.68 8.74L18.68 8.74Q18.52 8.49 18.39 8.22L18.39 8.22L18.39 8.22Q18.26 7.95 18.14 7.68L18.14 7.68L18.14 7.68Q18.03 7.46 17.88 7.45L17.88 7.45L17.88 7.45Q17.76 7.45 17.58 7.67L17.58 7.67L17.58 7.67Q17.50 7.77 17.47 7.87L17.47 7.87L17.47 7.87Q17.43 7.97 17.42 8.08L17.42 8.08L17.42 8.08Q17.40 8.24 17.44 8.40L17.44 8.40L17.44 8.40Q17.47 8.57 17.45 8.72L17.45 8.72L17.45 8.72Q17.45 8.76 17.45 8.78L17.45 8.78L17.45 8.78Q17.42 8.97 17.41 9.14L17.41 9.14L17.41 9.14Q17.40 9.32 17.41 9.48L17.41 9.48L17.41 9.48Q17.41 9.68 17.19 9.70L17.19 9.70L17.19 9.70Q16.99 9.69 16.99 9.49L16.99 9.49L16.99 9.49Q16.99 9.16 16.98 8.84L16.98 8.84L16.98 8.84Q16.97 8.51 16.95 8.18L16.95 8.18L16.95 8.18Q16.94 7.94 16.97 7.69L16.97 7.69L16.97 7.69Q17.01 7.44 17.01 7.20L17.01 7.20L17.01 7.20Q17.01 7.11 17.01 7.01L17.01 7.01L17.01 7.01Q17.01 6.92 17.01 6.82L17.01 6.82L17.01 6.82Q17.02 6.47 17.01 6.33L17.01 6.33L16.94 5.91L16.94 5.91Q16.90 5.65 17.01 5.50ZM24.53 9.08L24.53 9.08L24.53 9.08Q24.42 9.23 24.31 9.34L24.31 9.34L24.31 9.34Q24.21 9.45 24.09 9.53L24.09 9.53L24.09 9.53Q23.97 9.60 23.83 9.66L23.83 9.66L23.83 9.66Q23.69 9.71 23.52 9.73L23.52 9.73L23.52 9.73Q23.43 9.74 23.33 9.74L23.33 9.74L23.33 9.74Q23.24 9.75 23.13 9.73L23.13 9.73L23.13 9.73Q22.98 9.72 22.83 9.72L22.83 9.72L22.83 9.72Q22.69 9.72 22.54 9.69L22.54 9.69L22.54 9.69Q22.21 9.61 21.99 9.46L21.99 9.46L21.99 9.46Q21.77 9.31 21.66 9.07L21.66 9.07L21.66 9.07Q21.51 8.74 21.83 8.73L21.83 8.73L21.83 8.73Q21.88 8.73 21.95 8.81L21.95 8.81L21.95 8.81Q22.03 8.89 22.07 8.93L22.07 8.93L22.07 8.93Q22.21 9.07 22.23 9.08L22.23 9.08L22.24 9.08L22.24 9.09L22.24 9.09Q22.57 9.32 23.13 9.32L23.13 9.32L23.13 9.32L23.14 9.32L23.14 9.32Q23.37 9.32 23.73 9.23L23.73 9.23L23.73 9.23Q24.09 9.14 24.21 8.87L24.21 8.87L24.21 8.87Q24.27 8.70 24.21 8.51L24.21 8.51L24.21 8.50L24.21 8.50Q24.04 8.14 23.54 8.02L23.54 8.02L22.70 7.80L22.70 7.80Q22.52 7.76 22.27 7.63L22.27 7.63L22.27 7.63Q22.14 7.56 22.05 7.51L22.05 7.51L22.05 7.51Q21.95 7.45 21.89 7.40L21.89 7.40L21.89 7.40Q21.61 7.19 21.56 6.99L21.56 6.99L21.56 6.99Q21.55 6.95 21.55 6.89L21.55 6.89L21.55 6.89Q21.55 6.83 21.55 6.74L21.55 6.74L21.55 6.74Q21.55 6.64 21.57 6.55L21.57 6.55L21.57 6.55Q21.58 6.46 21.59 6.36L21.59 6.36L21.59 6.36Q21.64 6.04 21.86 5.80L21.86 5.80L21.86 5.80Q21.96 5.69 22.11 5.62L22.11 5.62L22.11 5.62Q22.26 5.55 22.39 5.49L22.39 5.49L22.39 5.49Q22.59 5.40 22.79 5.40L22.79 5.40L22.79 5.40Q23.00 5.39 23.21 5.40L23.21 5.40L23.21 5.40Q23.88 5.42 24.25 5.87L24.25 5.87L24.25 5.87Q24.42 6.08 24.38 6.22L24.38 6.22L24.34 6.26L24.34 6.26Q24.23 6.32 24.08 6.19L24.08 6.19L24.08 6.19Q24.04 6.16 24.00 6.13L24.00 6.13L24.00 6.13Q23.97 6.09 23.93 6.06L23.93 6.06L23.93 6.06Q23.90 6.02 23.84 5.98L23.84 5.98L23.84 5.98Q23.79 5.95 23.72 5.91L23.72 5.91L23.71 5.90L23.69 5.90L23.69 5.90Q23.43 5.82 23.17 5.81L23.17 5.81L23.17 5.81Q22.91 5.80 22.63 5.86L22.63 5.86L22.63 5.86Q22.29 5.93 22.11 6.14L22.11 6.14L22.11 6.14Q21.94 6.34 21.94 6.67L21.94 6.67L21.94 6.69L21.94 6.70L21.94 6.70Q21.97 7.12 22.60 7.30L22.60 7.30L22.80 7.36L23.30 7.53L23.30 7.53Q23.42 7.57 23.54 7.62L23.54 7.62L23.54 7.62Q23.65 7.67 23.78 7.72L23.78 7.72L23.78 7.72Q23.97 7.81 24.14 7.90L24.14 7.90L24.14 7.90Q24.30 7.98 24.44 8.07L24.44 8.07L24.44 8.07Q24.53 8.13 24.59 8.22L24.59 8.22L24.59 8.22Q24.64 8.31 24.65 8.41L24.65 8.41L24.65 8.41Q24.67 8.51 24.67 8.62L24.67 8.62L24.67 8.62Q24.66 8.73 24.64 8.82L24.64 8.82L24.64 8.82Q24.63 8.89 24.60 8.96L24.60 8.96L24.60 8.96Q24.57 9.03 24.53 9.08ZM26.74 7.99L26.74 7.99L26.74 7.99Q26.75 8.16 26.74 8.33L26.74 8.33L26.74 8.33Q26.74 8.50 26.74 8.67L26.74 8.67L26.74 8.67Q26.75 9.21 26.74 9.49L26.74 9.49L26.74 9.49Q26.74 9.61 26.64 9.67L26.64 9.67L26.64 9.67Q26.53 9.73 26.45 9.68L26.45 9.68L26.45 9.68Q26.37 9.65 26.35 9.52L26.35 9.52L26.35 9.52Q26.34 9.30 26.33 9.08L26.33 9.08L26.33 9.08Q26.33 8.87 26.33 8.64L26.33 8.64L26.33 8.64Q26.33 8.37 26.34 8.09L26.34 8.09L26.34 8.09Q26.34 7.82 26.34 7.53L26.34 7.53L26.34 7.53Q26.34 7.37 26.34 7.20L26.34 7.20L26.34 7.20Q26.35 7.03 26.34 6.87L26.34 6.87L26.34 6.87Q26.34 6.68 26.34 6.47L26.34 6.47L26.34 6.47Q26.33 6.26 26.35 6.03L26.35 6.03L26.35 6.03Q26.35 5.99 26.35 5.93L26.35 5.93L26.35 5.93Q26.35 5.87 26.35 5.78L26.35 5.78L26.35 5.78Q26.35 5.63 26.36 5.61L26.36 5.61L26.36 5.61Q26.37 5.55 26.48 5.48L26.48 5.48L26.48 5.48Q26.56 5.42 26.84 5.41L26.84 5.41L26.84 5.41Q26.97 5.40 27.07 5.40L27.07 5.40L27.07 5.40Q27.17 5.39 27.24 5.39L27.24 5.39L27.24 5.39Q27.43 5.39 27.62 5.40L27.62 5.40L27.62 5.40Q27.82 5.41 28.01 5.42L28.01 5.42L28.01 5.42Q28.12 5.43 28.26 5.44L28.26 5.44L28.26 5.44Q28.39 5.45 28.55 5.48L28.55 5.48L28.55 5.48Q28.86 5.52 29.04 5.66L29.04 5.66L29.05 5.66L29.05 5.66Q29.28 5.86 29.40 6.09L29.40 6.09L29.40 6.09Q29.52 6.32 29.50 6.61L29.50 6.61L29.50 6.61Q29.50 6.81 29.41 6.96L29.41 6.96L29.41 6.96Q29.32 7.10 29.16 7.21L29.16 7.21L29.16 7.21Q28.87 7.42 28.52 7.49L28.52 7.49L28.52 7.49Q28.55 7.48 28.42 7.51L28.42 7.51L28.42 7.51Q28.22 7.54 28.01 7.53L28.01 7.53L28.01 7.53Q27.80 7.52 27.60 7.55L27.60 7.55L27.60 7.55Q27.53 7.55 27.44 7.56L27.44 7.56L27.44 7.56Q27.34 7.56 27.21 7.55L27.21 7.55L27.21 7.55Q26.97 7.54 26.87 7.62L26.87 7.62L26.87 7.62Q26.73 7.72 26.74 7.99ZM27.82 7.12L27.88 7.12L27.88 7.12Q28.14 7.12 28.40 7.10L28.40 7.10L28.40 7.10Q28.65 7.07 28.89 6.89L28.89 6.89L28.89 6.89Q29.14 6.70 29.09 6.44L29.09 6.44L29.09 6.44Q29.04 6.18 28.81 6.02L28.81 6.02L28.81 6.02Q28.75 5.97 28.68 5.94L28.68 5.94L28.68 5.94Q28.61 5.91 28.53 5.89L28.53 5.89L28.53 5.89Q28.18 5.81 27.88 5.85L27.88 5.85L27.88 5.85Q27.73 5.87 27.58 5.88L27.58 5.88L27.58 5.88Q27.42 5.89 27.25 5.89L27.25 5.89L27.25 5.89Q27.17 5.89 27.11 5.88L27.11 5.88L27.11 5.88Q27.05 5.88 27.02 5.87L27.02 5.87L27.02 5.87Q26.97 5.86 26.94 5.87L26.94 5.87L26.94 5.87Q26.77 5.91 26.76 6.17L26.76 6.17L26.76 6.17Q26.75 6.23 26.75 6.32L26.75 6.32L26.75 6.32Q26.74 6.41 26.74 6.52L26.74 6.52L26.74 6.52Q26.75 6.56 26.75 6.61L26.75 6.61L26.75 6.61Q26.75 6.66 26.75 6.73L26.75 6.73L26.75 6.73Q26.76 6.97 26.90 7.08L26.90 7.08L26.90 7.08Q27.03 7.19 27.35 7.18L27.35 7.18L27.35 7.18Q27.47 7.17 27.58 7.16L27.58 7.16L27.58 7.16Q27.69 7.14 27.82 7.12L27.82 7.12ZM34.95 9.47L34.95 9.47L34.95 9.47Q34.95 9.65 34.81 9.69L34.81 9.69L34.81 9.69Q34.69 9.75 34.59 9.61L34.59 9.61L34.59 9.61Q34.54 9.54 34.51 9.49L34.51 9.49L34.51 9.49Q34.48 9.43 34.46 9.39L34.46 9.39L34.46 9.39Q34.36 9.18 34.29 9.03L34.29 9.03L34.29 9.03Q34.21 8.87 34.14 8.78L34.14 8.78L34.14 8.78Q33.97 8.55 33.78 8.49L33.78 8.49L33.78 8.49Q33.61 8.44 33.23 8.48L33.23 8.48L33.23 8.48Q33.01 8.50 32.82 8.51L32.82 8.51L32.82 8.51Q32.62 8.52 32.44 8.50L32.44 8.50L32.44 8.50Q32.05 8.48 31.86 8.76L31.86 8.76L31.84 8.78L31.83 8.79L31.83 8.79Q31.77 8.93 31.72 9.06L31.72 9.06L31.72 9.06Q31.68 9.19 31.62 9.32L31.62 9.32L31.47 9.54L31.47 9.54Q31.38 9.69 31.27 9.70L31.27 9.70L31.27 9.70Q31.23 9.72 31.14 9.65L31.14 9.65L31.14 9.65Q31.10 9.60 31.09 9.55L31.09 9.55L31.09 9.55Q31.08 9.49 31.09 9.43L31.09 9.43L31.09 9.43Q31.10 9.37 31.12 9.30L31.12 9.30L31.12 9.30Q31.14 9.24 31.17 9.19L31.17 9.19L31.33 8.85L31.33 8.85Q31.57 8.35 31.78 7.85L31.78 7.85L31.78 7.85Q31.99 7.34 32.22 6.83L32.22 6.83L32.22 6.83Q32.26 6.74 32.29 6.66L32.29 6.66L32.29 6.66Q32.32 6.58 32.35 6.51L32.35 6.51L32.35 6.51Q32.43 6.32 32.50 6.14L32.50 6.14L32.50 6.14Q32.58 5.95 32.68 5.76L32.68 5.76L32.78 5.61L32.78 5.61Q32.85 5.48 32.92 5.48L32.92 5.48L32.92 5.48Q32.99 5.46 33.10 5.59L33.10 5.59L33.10 5.59Q33.22 5.73 33.32 5.91L33.32 5.91L33.32 5.91Q33.43 6.10 33.50 6.26L33.50 6.26L33.50 6.26Q33.74 6.77 33.95 7.28L33.95 7.28L33.95 7.28Q34.16 7.79 34.40 8.28L34.40 8.28L34.40 8.28Q34.47 8.43 34.55 8.58L34.55 8.58L34.55 8.58Q34.62 8.74 34.70 8.88L34.70 8.88L34.70 8.88Q34.74 8.98 34.78 9.08L34.78 9.08L34.78 9.08Q34.83 9.17 34.87 9.27L34.87 9.27L34.87 9.27Q34.90 9.34 34.92 9.39L34.92 9.39L34.92 9.39Q34.95 9.44 34.95 9.47ZM33.60 7.56L33.60 7.56L33.60 7.56Q33.53 7.40 33.47 7.22L33.47 7.22L33.47 7.22Q33.40 7.05 33.31 6.88L33.31 6.88L33.31 6.88Q33.15 6.57 32.95 6.58L32.95 6.58L32.95 6.58Q32.87 6.58 32.82 6.62L32.82 6.62L32.82 6.62Q32.76 6.67 32.72 6.72L32.72 6.72L32.72 6.72Q32.68 6.78 32.64 6.85L32.64 6.85L32.64 6.85Q32.61 6.92 32.59 6.98L32.59 6.98L32.59 6.98Q32.51 7.18 32.44 7.40L32.44 7.40L32.44 7.40Q32.38 7.62 32.31 7.83L32.31 7.83L32.31 7.83Q32.27 7.98 32.33 8.05L32.33 8.05L32.33 8.05Q32.37 8.12 32.54 8.13L32.54 8.13L32.54 8.13Q32.69 8.14 32.81 8.15L32.81 8.15L32.81 8.15Q32.92 8.15 33.00 8.14L33.00 8.14L33.00 8.14Q33.15 8.14 33.39 8.10L33.39 8.10L33.39 8.10Q33.65 8.06 33.69 7.88L33.69 7.88L33.69 7.88Q33.71 7.77 33.67 7.69L33.67 7.69L33.67 7.69Q33.65 7.66 33.63 7.63L33.63 7.63L33.63 7.63Q33.61 7.59 33.60 7.56ZM39.43 9.06L39.43 9.06L39.43 9.06Q39.75 8.88 39.81 9.19L39.81 9.19L39.81 9.19Q39.83 9.32 39.67 9.44L39.67 9.44L39.67 9.44Q39.59 9.50 39.53 9.53L39.53 9.53L39.53 9.53Q39.46 9.57 39.41 9.59L39.41 9.59L39.41 9.59Q39.25 9.66 39.13 9.69L39.13 9.69L39.13 9.69Q39.00 9.72 38.90 9.73L38.90 9.73L38.90 9.73Q38.73 9.75 38.53 9.75L38.53 9.75L38.53 9.75Q38.33 9.75 38.11 9.71L38.11 9.71L38.11 9.71Q37.67 9.65 37.39 9.41L37.39 9.41L37.39 9.41Q37.14 9.19 36.98 8.89L36.98 8.89L36.98 8.89Q36.81 8.59 36.71 8.29L36.71 8.29L36.70 8.24L36.70 8.24Q36.63 8.05 36.65 7.80L36.65 7.80L36.65 7.80Q36.67 7.56 36.66 7.35L36.66 7.35L36.66 7.35Q36.66 7.18 36.67 7.06L36.67 7.06L36.67 7.06Q36.67 6.93 36.70 6.84L36.70 6.84L36.70 6.84Q36.75 6.67 36.92 6.38L36.92 6.38L36.92 6.38Q37.11 6.05 37.34 5.81L37.34 5.81L37.34 5.81Q37.57 5.57 37.97 5.49L37.97 5.49L37.97 5.49Q38.07 5.48 38.32 5.41L38.32 5.41L38.32 5.41Q38.40 5.39 38.49 5.37L38.49 5.37L38.49 5.37Q38.58 5.36 38.70 5.37L38.70 5.37L38.70 5.37Q38.79 5.37 38.91 5.39L38.91 5.39L38.91 5.39Q39.03 5.41 39.18 5.44L39.18 5.44L39.18 5.44Q39.29 5.48 39.52 5.58L39.52 5.58L39.52 5.58Q39.73 5.67 39.77 5.82L39.77 5.82L39.77 5.82Q39.79 5.88 39.76 5.94L39.76 5.94L39.76 5.94Q39.70 6.04 39.61 6.06L39.61 6.06L39.61 6.06Q39.57 6.08 39.49 6.06L39.49 6.06L39.49 6.06Q39.42 6.05 39.32 6.00L39.32 6.00L39.32 6.00Q39.18 5.93 39.07 5.88L39.07 5.88L39.07 5.88Q38.95 5.83 38.83 5.81L38.83 5.81L38.83 5.81Q38.71 5.78 38.59 5.79L38.59 5.79L38.59 5.79Q38.46 5.80 38.31 5.84L38.31 5.84L38.31 5.84Q37.95 5.95 37.81 6.02L37.81 6.02L37.81 6.02Q37.66 6.10 37.45 6.41L37.45 6.41L37.45 6.41Q37.29 6.65 37.20 6.91L37.20 6.91L37.20 6.91Q37.12 7.18 37.11 7.45L37.11 7.45L37.11 7.45Q37.09 7.73 37.15 8.00L37.15 8.00L37.15 8.00Q37.21 8.28 37.33 8.53L37.33 8.53L37.33 8.54L37.34 8.54L37.34 8.54Q37.63 9.08 38.18 9.22L38.18 9.22L38.18 9.22Q38.58 9.32 38.79 9.26L38.79 9.26L38.79 9.26Q38.86 9.26 38.91 9.24L38.91 9.24L38.91 9.24Q38.96 9.23 39.03 9.21L39.03 9.21L39.03 9.21Q39.26 9.17 39.43 9.06ZM41.38 9.29L41.38 9.29L41.38 9.29Q41.37 8.87 41.37 8.46L41.37 8.46L41.37 8.46Q41.38 8.04 41.38 7.62L41.38 7.62L41.38 7.38L41.38 7.38Q41.38 7.20 41.37 7.01L41.37 7.01L41.37 7.01Q41.36 6.82 41.37 6.64L41.37 6.64L41.37 6.64Q41.38 6.43 41.38 6.23L41.38 6.23L41.38 6.23Q41.38 6.03 41.38 5.82L41.38 5.82L41.38 5.82Q41.38 5.58 41.50 5.48L41.50 5.48L41.50 5.48Q41.59 5.41 41.82 5.41L41.82 5.41L41.82 5.41Q41.93 5.41 42.02 5.40L42.02 5.40L42.02 5.40Q42.10 5.40 42.16 5.40L42.16 5.40L42.16 5.40Q42.43 5.39 42.70 5.40L42.70 5.40L42.70 5.40Q42.96 5.41 43.23 5.41L43.23 5.41L43.23 5.41Q43.37 5.40 43.52 5.40L43.52 5.40L43.52 5.40Q43.66 5.39 43.80 5.41L43.80 5.41L44.15 5.43L44.15 5.43Q44.21 5.43 44.25 5.43L44.25 5.43L44.25 5.43Q44.30 5.43 44.33 5.45L44.33 5.45L44.33 5.45Q44.47 5.52 44.47 5.66L44.47 5.66L44.47 5.66Q44.46 5.72 44.42 5.76L44.42 5.76L44.42 5.76Q44.38 5.80 44.33 5.82L44.33 5.82L44.33 5.82Q44.28 5.84 44.22 5.84L44.22 5.84L44.22 5.84Q44.17 5.85 44.13 5.85L44.13 5.85L44.13 5.85Q43.71 5.85 43.30 5.83L43.30 5.83L43.30 5.83Q43.26 5.82 43.20 5.82L43.20 5.82L43.20 5.82Q43.13 5.82 43.06 5.82L43.06 5.82L42.66 5.82L42.66 5.82Q42.51 5.82 42.38 5.83L42.38 5.83L42.38 5.83Q42.26 5.83 42.18 5.83L42.18 5.83L42.18 5.83Q42.06 5.84 41.99 5.86L41.99 5.86L41.99 5.86Q41.91 5.89 41.88 5.94L41.88 5.94L41.88 5.94Q41.82 6.02 41.84 6.15L41.84 6.15L41.84 6.15Q41.84 6.20 41.84 6.24L41.84 6.24L41.84 6.24Q41.84 6.28 41.83 6.32L41.83 6.32L41.83 6.32Q41.82 6.40 41.81 6.49L41.81 6.49L41.81 6.49Q41.80 6.58 41.81 6.69L41.81 6.69L41.81 6.69Q41.81 6.88 41.96 7.01L41.96 7.01L41.96 7.01Q42.08 7.12 42.40 7.10L42.40 7.10L42.40 7.10Q42.55 7.10 42.69 7.08L42.69 7.08L42.69 7.08Q42.83 7.06 42.97 7.07L42.97 7.07L42.97 7.07Q43.03 7.07 43.13 7.07L43.13 7.07L43.13 7.07Q43.23 7.08 43.37 7.07L43.37 7.07L43.37 7.07Q43.64 7.06 43.74 7.16L43.74 7.16L43.74 7.16Q43.77 7.21 43.76 7.32L43.76 7.32L43.76 7.32Q43.74 7.44 43.57 7.47L43.57 7.47L43.57 7.47Q43.42 7.50 43.32 7.50L43.32 7.50L43.32 7.50Q43.20 7.51 43.08 7.50L43.08 7.50L43.08 7.50Q42.96 7.50 42.83 7.51L42.83 7.51L42.83 7.51Q42.68 7.52 42.53 7.51L42.53 7.51L42.53 7.51Q42.37 7.51 42.20 7.49L42.20 7.49L42.20 7.49Q42.18 7.49 42.15 7.49L42.15 7.49L42.15 7.49Q42.12 7.49 42.10 7.49L42.10 7.49L42.10 7.49L42.10 7.49Q42.02 7.47 41.95 7.52L41.95 7.52L41.95 7.52Q41.82 7.59 41.81 7.78L41.81 7.78L41.81 7.78Q41.79 7.96 41.81 8.09L41.81 8.09L41.81 8.09Q41.82 8.16 41.82 8.22L41.82 8.22L41.82 8.22Q41.82 8.29 41.82 8.33L41.82 8.33L41.82 8.33Q41.80 8.44 41.79 8.53L41.79 8.53L41.79 8.53Q41.78 8.63 41.77 8.74L41.77 8.74L41.77 8.74Q41.75 9.00 41.84 9.13L41.84 9.13L41.84 9.13Q41.95 9.28 42.24 9.28L42.24 9.28L42.24 9.28Q42.46 9.28 42.70 9.27L42.70 9.27L42.70 9.27Q42.93 9.26 43.16 9.25L43.16 9.25L43.16 9.25Q43.37 9.24 43.60 9.26L43.60 9.26L43.60 9.26Q43.82 9.28 44.04 9.28L44.04 9.28L44.04 9.28Q44.12 9.28 44.26 9.28L44.26 9.28L44.26 9.28Q44.39 9.28 44.47 9.32L44.47 9.32L44.47 9.32Q44.54 9.36 44.54 9.44L44.54 9.44L44.54 9.44Q44.62 9.69 44.33 9.70L44.33 9.70L44.33 9.70Q43.88 9.72 43.45 9.71L43.45 9.71L43.45 9.71Q43.01 9.71 42.57 9.71L42.57 9.71L42.57 9.71Q42.55 9.71 42.52 9.72L42.52 9.72L42.52 9.72Q42.50 9.72 42.48 9.72L42.48 9.72L42.48 9.72Q42.32 9.72 42.21 9.72L42.21 9.72L42.21 9.72Q42.10 9.72 42.02 9.71L42.02 9.71L42.02 9.71Q41.97 9.71 41.91 9.71L41.91 9.71L41.91 9.71Q41.84 9.71 41.76 9.70L41.76 9.70L41.76 9.70Q41.69 9.69 41.65 9.69L41.65 9.69L41.65 9.69Q41.60 9.68 41.58 9.67L41.58 9.67L41.58 9.67Q41.38 9.61 41.38 9.29Z"></path></g><defs data-v-fde0c5aa=""><!----></defs><g data-v-fde0c5aa="" id="209725a5-ffc2-4ec3-ad0e-a707247b01fc" stroke="none" fill="#488eff" transform="matrix(1.1167070187891304,0,0,1.1167070187891304,39.99977007734166,136.59952889287464)"><path d="M12.43 19.005l-6.521.932-.176-.996-2.652-15.03L14.25 2.05l5.847-.974 1.911 10.515a.5.5 0 0 0 .984-.179l-2-11a.502.502 0 0 0-.574-.404l-6.273 1.045L1.542.003a.467.467 0 0 0-.37.121.495.495 0 0 0-.171.349l-1 18a.5.5 0 0 0 .443.525l4.369.486.195 1.104a.5.5 0 0 0 .562.408l7-1a.5.5 0 0 0-.14-.991zm.716 2.141A.5.5 0 0 0 13 21.5v2a.5.5 0 0 0 .5.5h2c.133 0 .26-.053.354-.146l5.646-5.646-2.707-2.707-5.647 5.645zm10.708-6l-2-2a.5.5 0 0 0-.707 0l-1.646 1.646 2.707 2.707 1.646-1.646a.5.5 0 0 0 0-.707z"></path></g><!----></svg>